<svg width="294" height="290" viewBox="0 0 294 290" fill="none" xmlns="http://www.w3.org/2000/svg">
<path d="M132.154 8.45482C141.357 3.21346 152.643 3.21345 161.846 8.45482L259.152 63.87C268.52 69.2053 274.306 79.1576 274.306 89.9389V200.061C274.306 210.842 268.521 220.795 259.152 226.13L161.846 281.545C152.643 286.787 141.357 286.787 132.154 281.545L34.8481 226.13C25.4795 220.795 19.6943 210.842 19.6943 200.061V89.9389C19.6943 79.1576 25.4795 69.2053 34.8481 63.87L132.154 8.45482Z" fill="black"/>
<path d="M220.5 72L148 137.5L168 159H93.4999L220.5 72Z" fill="#D9D9D9"/>
<path d="M134.5 72H220.5L93.4999 159L134.5 72Z" fill="#BB1E1E"/>
<path d="M74.5 230.5L124 159L168 159L74.5 230.5Z" fill="#17B5BD"/>
</svg>
