<svg width="319" height="28" viewBox="0 0 319 28" fill="none" xmlns="http://www.w3.org/2000/svg">
<path d="M1.90286 26.1597L3.04708 24.5586H17.8311C20.0071 24.5586 21.7277 23.6734 22.9928 21.9029L25.2533 18.7396C26.3138 17.2556 26.1211 16.3834 24.6752 16.1231L15.5831 14.4047C12.4724 13.8319 12.0799 11.9183 14.4056 8.6639L15.9126 6.55503C18.7592 2.5716 22.6305 0.579889 27.5265 0.579889H39.1425L40.3257 1.94675L39.1815 3.54793H25.3575C23.1815 3.54793 21.4609 4.43314 20.1958 6.20355L18.298 8.85917C17.2375 10.3432 17.4303 11.2154 18.8762 11.4757L27.9962 13.155C31.1069 13.7278 31.4901 15.6544 29.1458 18.9349L27.276 21.5515C24.4294 25.5349 20.5581 27.5266 15.6621 27.5266H3.08608L1.90286 26.1597ZM30.2098 27.5266L49.4662 0.579889H65.1622C70.0582 0.579889 71.0829 2.5716 68.2363 6.55503L64.6083 11.6319C61.7617 15.6154 57.8904 17.6071 52.9944 17.6071H41.3304L34.2418 27.5266H30.2098ZM43.4514 14.639H55.1634C57.3394 14.639 59.06 13.7538 60.3252 11.9834L64.4555 6.20355C65.7207 4.43314 65.2652 3.54793 63.0892 3.54793H51.3772L43.4514 14.639ZM60.653 26.1597L61.7972 24.5586H75.6212C77.7972 24.5586 79.5178 23.6734 80.7829 21.9029L83.9086 17.529C85.1738 15.7586 84.7183 14.8734 82.5423 14.8734H72.2703L74.3913 11.9053H84.6633C86.8393 11.9053 88.5599 11.0201 89.8251 9.2497L92.0019 6.20355C93.267 4.43314 92.8116 3.54793 90.6356 3.54793H77.2916L78.4358 1.94675L81.5726 0.579889H92.7086C97.6046 0.579889 98.6293 2.5716 95.7827 6.55503L93.7454 9.40591C93.0012 10.4473 91.9966 11.2935 90.7314 11.9444L88.0747 13.3112L88.7779 14.6781C89.1128 15.329 88.9081 16.1751 88.1639 17.2166L85.0661 21.5515C82.2195 25.5349 78.3482 27.5266 73.4522 27.5266H61.8362L60.653 26.1597ZM88.403 26.1597L89.5472 24.5586H103.371C105.547 24.5586 107.268 23.6734 108.533 21.9029L111.659 17.529C112.924 15.7586 112.468 14.8734 110.292 14.8734H100.02L102.141 11.9053H112.413C114.589 11.9053 116.31 11.0201 117.575 9.2497L119.752 6.20355C121.017 4.43314 120.562 3.54793 118.386 3.54793H105.042L106.186 1.94675L109.323 0.579889H120.459C125.355 0.579889 126.379 2.5716 123.533 6.55503L121.495 9.40591C120.751 10.4473 119.747 11.2935 118.481 11.9444L115.825 13.3112L116.528 14.6781C116.863 15.329 116.658 16.1751 115.914 17.2166L112.816 21.5515C109.97 25.5349 106.098 27.5266 101.202 27.5266H89.5862L88.403 26.1597ZM115.944 27.5266L135.201 0.579889H148.161C156.161 0.579889 157.835 3.83432 153.184 10.3432L147.881 17.7633C143.23 24.2722 136.904 27.5266 128.904 27.5266H115.944ZM122.097 24.5586H131.265C136.417 24.5586 140.491 22.4627 143.486 18.271L149.514 9.8355C152.51 5.64379 151.432 3.54793 146.28 3.54793H137.112L122.097 24.5586Z" fill="#17A3DE"/>
<path d="M148.185 27.5266L167.442 0.579889H190.098L186.47 5.65681H170.726L165.981 12.2959H180.285L176.657 17.3728H162.353L155.097 27.5266H148.185ZM176.216 27.5266L195.473 0.579889H211.601C216.977 0.579889 218.102 2.76687 214.976 7.14083L211.795 11.5929C209.469 14.8473 206.53 16.8781 202.977 17.6852L202.206 26.355L200.552 27.5266H194.6L195.442 18.1538H189.826L183.128 27.5266H176.216ZM193.454 13.0769H202.382C203.342 13.0769 204.101 12.6864 204.66 11.9053L208.288 6.8284C208.846 6.04734 208.645 5.65681 207.685 5.65681H198.757L193.454 13.0769ZM207.341 27.5266L226.598 0.579889H249.254L245.626 5.65681H229.882L225.975 11.1243H240.279L236.651 16.2012H222.347L217.881 22.4497H233.625L229.997 27.5266H207.341ZM237.717 23.5432L241.01 18.9349L264.255 0.579889H270.111L270.089 1.75149L248.929 18.4663H257.185L262.711 10.7337H269.623L257.622 27.5266H250.71L253.557 23.5432H237.717ZM264.06 27.5266L283.317 0.579889H290.229L282.61 11.2414L301.941 0.579889H308.421L308.283 1.71243L290.175 11.671L291.846 26.3941L290.412 27.5266H284.028L282.808 15.7325L277.251 18.7396L270.972 27.5266H264.06Z" fill="white"/>
<path d="M318.707 16.7071C319.098 16.3166 319.098 15.6834 318.707 15.2929L312.343 8.92893C311.953 8.53841 311.319 8.53841 310.929 8.92893C310.538 9.31946 310.538 9.95262 310.929 10.3431L316.586 16L310.929 21.6569C310.538 22.0474 310.538 22.6805 310.929 23.0711C311.319 23.4616 311.953 23.4616 312.343 23.0711L318.707 16.7071ZM0 17H318V15H0V17Z" fill="#D03636"/>
</svg>
